<svg xmlns="http://www.w3.org/2000/svg" version="1.1" xmlns:xlink="http://www.w3.org/1999/xlink" xmlns:svgjs="http://svgjs.com/svgjs" width="1em" height="1em"><svg xmlns="http://www.w3.org/2000/svg" width="1em" height="1em" fill="currentColor" stroke="currentColor" stroke-width="0" viewBox="0 0 256 256"><path stroke="none" d="M224 44h-64a43.86 43.86 0 0 0-32 13.85A43.86 43.86 0 0 0 96 44H32a20 20 0 0 0-20 20v128a20 20 0 0 0 20 20h64a20 20 0 0 1 20 20 12 12 0 0 0 24 0 20 20 0 0 1 20-20h64a20 20 0 0 0 20-20V64a20 20 0 0 0-20-20ZM96 188H36V68h60a20 20 0 0 1 20 20v104.81A43.79 43.79 0 0 0 96 188Zm124 0h-60a43.71 43.71 0 0 0-20 4.83V88a20 20 0 0 1 20-20h60Z"></path></svg><style>@media (prefers-color-scheme: light) { :root { filter: none; } }
</style></svg>